<svg width="16" height="16" viewBox="0 0 16 16" fill="none" xmlns="http://www.w3.org/2000/svg">
<path d="M0.292629 14.2932C0.105121 14.4808 -0.000184538 14.7352 -0.000122021 15.0005C-5.95053e-05 15.2657 0.105366 15.52 0.292963 15.7076C0.480559 15.8951 0.734959 16.0004 1.0002 16.0003C1.26544 16.0002 1.51979 15.8948 1.7073 15.7072L7.88196 9.53322C7.89744 9.5177 7.91584 9.50539 7.93608 9.49698C7.95633 9.48858 7.97804 9.48426 7.99996 9.48426C8.02188 9.48426 8.04359 9.48858 8.06384 9.49698C8.08409 9.50539 8.10248 9.5177 8.11796 9.53322L14.2926 15.7086C14.3855 15.8014 14.4957 15.8751 14.617 15.9254C14.7384 15.9757 14.8684 16.0016 14.9997 16.0016C15.1311 16.0017 15.2611 15.9758 15.3825 15.9256C15.5038 15.8754 15.6141 15.8017 15.707 15.7089C15.7999 15.616 15.8735 15.5058 15.9238 15.3845C15.9741 15.2632 16 15.1331 16 15.0018C16.0001 14.8705 15.9742 14.7404 15.924 14.6191C15.8738 14.4977 15.8001 14.3874 15.7073 14.2946L9.5333 8.11789C9.51778 8.10241 9.50546 8.08401 9.49706 8.06377C9.48866 8.04352 9.48433 8.02181 9.48433 7.99989C9.48433 7.97797 9.48866 7.95626 9.49706 7.93601C9.50546 7.91576 9.51778 7.89737 9.5333 7.88189L15.7086 1.70722C15.8961 1.51945 16.0014 1.26488 16.0012 0.999514C16.001 0.73415 15.8954 0.479729 15.7076 0.292221C15.5199 0.104713 15.2653 -0.000522976 14.9999 -0.000335443C14.7346 -0.00014791 14.4801 0.105447 14.2926 0.293221L8.11796 6.46655C8.10248 6.48208 8.08409 6.49439 8.06384 6.50279C8.04359 6.51119 8.02188 6.51552 7.99996 6.51552C7.97804 6.51552 7.95633 6.51119 7.93608 6.50279C7.91584 6.49439 7.89744 6.48208 7.88196 6.46655L1.7073 0.293221C1.61445 0.200332 1.50422 0.126641 1.3829 0.0763531C1.26157 0.0260655 1.13153 0.000166896 1.0002 0.000135943C0.734959 7.3431e-05 0.480559 0.105379 0.292963 0.292887C0.105366 0.480395 -5.95304e-05 0.734746 -0.000122042 0.999985C-0.000184555 1.26522 0.105121 1.51962 0.292629 1.70722L6.46663 7.88189C6.48215 7.89737 6.49446 7.91576 6.50287 7.93601C6.51127 7.95626 6.51559 7.97797 6.51559 7.99989C6.51559 8.02181 6.51127 8.04352 6.50287 8.06377C6.49446 8.08401 6.48215 8.10241 6.46663 8.11789L0.292629 14.2932Z" fill="#000"/>
</svg>
